<?xml version="1.0" encoding="utf-8"?>
<svg viewBox="0 0 500 500" xmlns="http://www.w3.org/2000/svg" xmlns:bx="https://boxy-svg.com">
  <rect style="fill: rgb(255, 255, 255); paint-order: stroke; stroke-width: 0px;" x="1.01" y="-0.978" width="499.086" height="504.57" rx="50" ry="50"/>
  <path style="fill: rgb(73, 83, 184);" transform="matrix(-0.927184, 0.374607, -0.374607, -0.927184, 384.625183, 378.674713)" d="M 43.11 172.786 H 311.76 V 252.335 H 43.11 A 42.5 39.775 0 0 1 0.61 212.561 V 212.561 A 42.5 39.775 0 0 1 43.11 172.786 Z" bx:shape="rect 0.61 172.786 311.15 79.549 42.5 0 0 42.5 1@5d10ec1b"/>
  <path style="fill: rgb(73, 83, 184);" transform="matrix(-0.927184, 0.374607, -0.374607, -0.927184, 426.221344, 477.510284)" d="M 43.196 175.063 H 355.284 V 255.66 H 43.196 A 42.5 40.299 0 0 1 0.696 215.361 V 215.361 A 42.5 40.299 0 0 1 43.196 175.063 Z" bx:shape="rect 0.696 175.063 354.588 80.597 42.5 0 0 42.5 1@7a9fab90"/>
  <path style="fill: rgb(73, 83, 184);" transform="matrix(-0.927184, 0.374607, -0.374607, -0.927184, 328.072601, 290.833649)" d="M 42.986 176.237 H 248.864 V 257.375 H 42.986 A 42.5 40.569 0 0 1 0.486 216.806 V 216.806 A 42.5 40.569 0 0 1 42.986 176.237 Z" bx:shape="rect 0.486 176.237 248.378 81.138 42.5 0 0 42.5 1@4691e28b"/>
  <path d="M 361.049 60.613 L 403.25 114.33 L 318.848 114.33 L 361.049 60.613 Z" style="fill: rgb(73, 83, 184);" transform="matrix(0.000023, 1, -1, 0.000023, 115.31189, -173.319244)" bx:shape="triangle 318.848 60.613 84.402 53.717 0.5 0 1@257c3c90"/>
  <polyline style="stroke-width: 0px; stroke: rgb(73, 83, 184); paint-order: fill; fill: rgb(73, 83, 184);" points="0.976 236.594 50.725 210.495 41.946 195.341 0.976 229.579 0.976 236.734"/>
  <polyline style="fill: rgb(73, 83, 184); stroke: rgb(73, 83, 184);" points="32.627 333.902 1.351 342.054 1.964 261.434 32.472 334.051" transform="matrix(0.999997, -0.002371, 0.002371, 0.999997, -0.715387, 0.041129)"/>
  <polyline style="fill: rgb(73, 83, 184); stroke: rgb(73, 83, 184); stroke-width: 0px;" points="39.74700164794922 444.1960144042969 1.8619999885559082 462.9410095214844 0.9660000205039978 456.0260009765625 0.9790002107620239 373.5419921875 1.8459999561309814 373.25799560546875 9.152999877929688 384.864013671875 30.284000396728516 425.760009765625 39.209999084472656 442.947998046875"/>
</svg>